<?xml version="1.0" standalone="no"?>
<!DOCTYPE svg PUBLIC "-//W3C//DTD SVG 20010904//EN"
 "http://www.w3.org/TR/2001/REC-SVG-20010904/DTD/svg10.dtd">
<svg version="1.0" xmlns="http://www.w3.org/2000/svg"
 width="830.000000pt" height="830.000000pt" viewBox="0 0 830.000000 830.000000"
 preserveAspectRatio="xMidYMid meet">
<metadata>
Created by potrace 1.14, written by Peter Selinger 2001-2017
</metadata>
<g transform="translate(0.000000,830.000000) scale(0.100000,-0.100000)"
fill="#000000" stroke="none">
<path d="M1480 8002 c-125 -42 -206 -122 -249 -247 -20 -60 -20 -68 -21 -2555
0 -2110 2 -2503 14 -2548 33 -122 119 -216 241 -262 50 -18 80 -22 180 -22
147 -1 184 5 252 38 88 43 152 114 191 212 l22 54 0 1611 c0 886 2 1612 3
1614 3 2 60 -92 117 -196 14 -25 44 -77 66 -116 23 -38 53 -90 66 -115 14 -25
59 -103 100 -175 41 -71 86 -150 100 -175 14 -25 59 -103 100 -175 41 -71 86
-150 100 -175 14 -25 50 -88 80 -140 30 -52 66 -115 80 -140 14 -25 57 -100
97 -167 39 -68 71 -124 71 -127 0 -2 20 -37 45 -79 79 -131 177 -200 308 -215
150 -18 305 65 374 201 14 29 36 66 49 82 31 42 61 121 67 181 11 94 -15 173
-107 333 -88 153 -584 1023 -628 1101 -31 54 -220 385 -409 716 -75 132 -146
256 -157 275 -10 19 -64 113 -119 210 -55 96 -112 195 -125 220 -14 24 -51 89
-83 144 -31 55 -67 118 -80 140 -225 397 -245 424 -353 477 -63 31 -72 33
-201 35 -110 3 -147 0 -191 -15z"/>
<path d="M6472 8000 c-69 -23 -139 -71 -178 -123 -17 -23 -134 -222 -259 -442
-126 -220 -380 -665 -565 -990 -185 -324 -348 -610 -362 -635 -14 -25 -86
-151 -160 -280 -74 -129 -146 -255 -160 -280 -14 -25 -89 -157 -168 -295 -187
-326 -179 -312 -209 -370 -66 -128 -59 -285 18 -392 15 -21 38 -60 52 -87 81
-164 278 -244 459 -186 56 18 82 34 130 79 54 51 88 105 351 566 160 281 305
535 321 565 17 30 35 60 40 67 5 7 17 27 27 45 39 76 375 658 378 655 1 -2 3
-726 3 -1609 0 -1115 4 -1616 11 -1639 41 -130 125 -218 246 -261 77 -27 280
-29 367 -4 130 38 221 130 260 265 14 49 16 298 13 2560 -1 1378 -5 2516 -9
2529 -38 126 -142 229 -268 266 -75 23 -265 20 -338 -4z"/>
<path d="M2450 1940 c-13 -8 -15 -56 -16 -329 -1 -176 2 -324 5 -329 11 -17
47 -22 64 -10 14 11 17 35 18 158 1 180 14 214 90 239 40 13 98 8 128 -11 36
-22 45 -64 47 -222 1 -83 2 -154 3 -157 2 -13 45 -18 63 -8 18 10 19 21 16
188 l-3 178 -30 43 c-55 80 -179 108 -274 62 l-41 -20 0 102 c0 103 -7 126
-39 126 -9 0 -23 -5 -31 -10z"/>
<path d="M22 1909 l-22 -8 0 -310 c0 -285 1 -311 18 -319 21 -11 53 -7 62 8 4
6 7 95 8 198 0 103 1 196 1 207 1 11 47 -60 102 -157 93 -165 103 -178 129
-178 26 0 35 11 107 138 43 75 87 154 98 174 10 21 21 35 24 33 2 -3 5 -97 5
-209 1 -112 3 -206 6 -209 14 -13 48 -16 63 -5 16 12 17 42 18 318 0 271 -2
306 -17 317 -35 26 -57 -1 -179 -215 -66 -116 -122 -212 -125 -212 -3 0 -23
33 -45 72 -22 40 -56 100 -75 134 -19 33 -54 95 -78 138 -47 83 -65 98 -100
85z"/>
<path d="M2984 1895 c-19 -30 -12 -58 21 -75 51 -28 102 32 68 80 -20 29 -68
27 -89 -5z"/>
<path d="M3452 1912 c-12 -2 -26 -11 -30 -20 -11 -22 -10 -608 1 -618 10 -11
400 -12 427 -2 22 8 27 47 8 66 -8 8 -64 12 -185 12 l-173 0 0 100 0 100 148
0 c102 0 152 4 160 12 18 18 15 56 -5 66 -10 5 -76 10 -148 10 -71 0 -136 1
-142 1 -10 1 -13 27 -13 96 l0 94 148 0 c215 0 199 -3 206 28 14 51 -4 57
-201 57 -98 1 -188 0 -201 -2z"/>
<path d="M5067 1902 c-21 -23 -21 -41 -1 -70 21 -30 58 -28 83 4 17 21 19 30
9 48 -21 40 -63 49 -91 18z"/>
<path d="M7106 1904 c-31 -31 -7 -94 35 -94 26 0 59 30 59 54 0 47 -62 73 -94
40z"/>
<path d="M2138 1848 c-9 -7 -18 -29 -20 -48 -3 -31 -7 -35 -33 -38 -16 -2 -36
-8 -42 -14 -9 -7 -13 -7 -13 0 0 5 -6 12 -13 15 -18 7 -108 -12 -126 -26 -10
-9 -16 -7 -26 6 -16 22 -62 22 -73 0 -10 -20 -10 -458 0 -468 11 -11 42 -13
60 -4 14 8 17 31 20 168 3 144 5 162 24 188 32 43 102 62 189 51 l30 -4 5
-164 c5 -176 13 -202 63 -228 86 -45 219 7 185 72 -8 14 -17 17 -41 12 -121
-25 -120 -26 -119 142 0 70 1 136 1 148 1 19 7 21 54 19 67 -2 87 8 87 45 0
37 -9 42 -81 41 -61 -1 -64 1 -60 49 2 35 -43 59 -71 38z"/>
<path d="M890 1750 c-104 -35 -162 -120 -163 -237 -1 -184 175 -300 345 -228
45 18 113 95 124 137 34 141 -11 262 -119 316 -57 28 -126 33 -187 12z m163
-97 c87 -52 91 -214 5 -276 -14 -11 -49 -22 -76 -25 -116 -11 -199 100 -161
216 31 98 140 138 232 85z"/>
<path d="M1408 1756 c-182 -48 -240 -294 -100 -429 112 -107 300 -76 376 63
51 93 33 231 -40 304 -58 58 -154 83 -236 62z m160 -112 c86 -66 76 -220 -17
-272 -127 -72 -259 36 -228 186 9 46 63 108 100 115 47 9 111 -4 145 -29z"/>
<path d="M4118 1755 c-26 -6 -54 -17 -62 -24 -12 -10 -16 -8 -21 8 -8 26 -69
30 -79 5 -3 -9 -6 -114 -6 -234 0 -182 3 -221 15 -234 17 -16 54 -13 66 5 4 7
7 73 8 147 0 74 5 150 11 168 17 52 63 79 134 79 53 -1 61 -4 87 -33 32 -35
31 -32 30 -227 0 -66 3 -126 8 -133 10 -17 41 -22 64 -10 16 8 18 25 17 172
-2 179 -11 219 -66 270 -48 44 -130 61 -206 41z"/>
<path d="M4670 1763 c-135 -20 -213 -109 -213 -242 -1 -80 24 -133 83 -184 73
-62 191 -75 278 -29 l40 21 -4 -32 c-5 -47 -23 -74 -59 -92 -66 -31 -168 -14
-241 40 -19 14 -23 14 -44 -3 -70 -57 67 -144 216 -137 105 5 160 37 196 115
18 41 20 66 22 273 0 126 -2 237 -6 248 -11 29 -72 23 -76 -7 l-3 -20 -47 22
c-49 23 -100 33 -142 27z m110 -103 c11 -6 31 -26 46 -46 34 -44 38 -124 7
-176 -54 -92 -199 -95 -267 -5 -41 55 -27 163 28 209 43 36 135 45 186 18z"/>
<path d="M5470 1763 c-14 -2 -45 -11 -69 -20 -40 -14 -44 -14 -53 1 -12 21
-64 21 -72 0 -3 -9 -6 -116 -6 -239 0 -204 2 -225 18 -233 21 -11 53 -7 62 8
4 6 7 76 7 155 1 132 3 147 23 181 13 20 38 43 58 51 48 20 120 9 152 -23 24
-24 25 -29 30 -195 5 -179 9 -192 53 -183 11 2 24 9 28 16 14 22 7 310 -8 353
-31 88 -125 142 -223 128z"/>
<path d="M5947 1755 c-103 -26 -172 -120 -171 -235 0 -36 6 -82 13 -104 17
-48 77 -111 126 -132 89 -37 214 -18 269 41 32 34 33 59 5 79 -20 13 -25 12
-71 -20 -39 -26 -60 -34 -95 -34 -76 0 -139 44 -155 108 l-6 22 178 0 c130 0
180 3 188 13 5 6 8 30 6 52 -13 151 -144 247 -287 210z m145 -106 c25 -18 48
-55 48 -77 0 -4 -61 -7 -135 -7 -149 0 -157 4 -112 57 50 62 134 73 199 27z"/>
<path d="M6440 1760 c-105 -29 -176 -119 -181 -227 -5 -113 41 -197 133 -245
63 -32 167 -31 227 2 77 43 97 89 51 117 -16 11 -24 9 -48 -12 -81 -68 -195
-57 -249 24 -41 61 -42 61 157 61 176 0 181 1 189 22 12 32 -5 105 -37 157
-45 73 -164 123 -242 101z m104 -94 c31 -13 86 -72 86 -92 0 -6 -58 -10 -140
-9 -100 0 -140 3 -140 12 0 6 12 26 27 44 45 53 108 70 167 45z"/>
<path d="M6967 1759 c-27 -4 -55 -13 -64 -20 -13 -11 -17 -10 -28 4 -14 20
-58 23 -72 5 -6 -8 -10 -109 -11 -234 -1 -212 0 -223 20 -240 11 -11 21 -19
22 -18 0 0 11 6 24 13 21 11 22 17 22 149 0 75 5 154 10 174 13 45 50 76 102
84 42 7 63 32 53 63 -8 25 -21 29 -78 20z"/>
<path d="M7518 1765 c-2 -2 -17 -5 -34 -8 -17 -3 -44 -12 -61 -21 -29 -15 -31
-14 -36 4 -4 14 -14 20 -35 20 -17 0 -34 -5 -37 -10 -9 -15 -7 -462 3 -472 5
-5 18 -10 30 -13 39 -7 47 18 47 169 1 153 9 184 56 218 32 24 104 30 147 12
52 -21 62 -59 62 -234 l0 -150 27 -11 c21 -8 30 -6 42 6 13 13 16 43 15 178 0
146 -2 166 -22 204 -24 46 -73 88 -112 97 -39 8 -88 14 -92 11z"/>
<path d="M7979 1754 c-56 -17 -113 -64 -142 -117 -17 -33 -22 -59 -22 -118 0
-67 3 -81 30 -125 19 -30 49 -60 79 -79 44 -27 58 -30 130 -30 67 0 88 4 120
23 l39 23 -6 -42 c-8 -63 -42 -92 -115 -97 -66 -5 -117 8 -169 44 -29 19 -38
21 -54 11 -47 -29 -26 -72 53 -111 107 -52 251 -40 316 27 55 56 60 87 62 338
0 124 -2 233 -6 242 -10 27 -62 22 -76 -8 -11 -24 -11 -24 -35 -5 -41 32 -138
43 -204 24z m158 -97 c51 -27 76 -78 71 -146 -6 -89 -52 -136 -141 -144 -55
-5 -111 19 -141 60 -20 28 -32 106 -23 146 22 85 145 130 234 84z"/>
<path d="M2992 1743 c-13 -29 -8 -451 6 -465 18 -18 48 -19 62 -3 13 16 19
453 6 473 -11 19 -64 14 -74 -5z"/>
<path d="M5073 1748 c-11 -14 -13 -462 -1 -473 11 -11 42 -13 61 -3 16 8 17
28 15 246 l-3 237 -31 3 c-17 2 -35 -3 -41 -10z"/>
<path d="M7113 1753 c-10 -3 -13 -59 -13 -231 0 -125 4 -233 8 -240 13 -19 50
-23 67 -6 12 13 15 52 15 234 0 120 -3 225 -6 234 -6 15 -44 20 -71 9z"/>
<path d="M5568 949 c-8 -5 -12 -40 -13 -111 0 -57 -3 -104 -7 -105 -4 -1 -27
7 -50 17 -154 70 -331 -40 -339 -211 -5 -108 43 -197 131 -245 52 -28 172 -26
223 4 41 24 51 27 42 13 -7 -13 23 -41 44 -41 43 0 45 16 44 346 0 220 -4 319
-11 326 -14 14 -47 17 -64 7z m-88 -284 c57 -30 85 -109 67 -195 -33 -154
-262 -148 -295 7 -33 151 96 256 228 188z"/>
<path d="M3127 912 c-33 -36 -8 -92 40 -92 25 0 53 30 53 57 0 46 -62 69 -93
35z"/>
<path d="M4217 912 c-33 -36 -8 -92 40 -92 25 0 53 30 53 57 0 46 -62 69 -93
35z"/>
<path d="M2664 909 c-4 -7 -7 -147 -7 -312 0 -272 2 -302 18 -313 12 -9 69
-12 207 -12 l190 1 11 24 c8 17 8 29 0 41 -9 14 -35 18 -174 22 l-164 5 0 265
c0 146 -4 271 -8 278 -10 15 -63 16 -73 1z"/>
<path d="M4442 854 c-13 -9 -19 -22 -17 -35 6 -32 -5 -49 -34 -49 -31 0 -51
-16 -51 -41 0 -25 27 -48 50 -44 11 2 23 -2 27 -8 4 -7 8 -80 8 -163 1 -127 4
-156 18 -178 25 -38 76 -66 120 -66 38 0 96 23 109 44 27 41 -22 80 -69 55
-31 -17 -63 -13 -80 9 -14 18 -19 301 -5 303 4 1 33 2 64 3 63 1 67 3 73 36 7
38 -12 50 -81 50 l-63 0 -3 41 c-4 49 -32 67 -66 43z"/>
<path d="M3132 758 c-6 -8 -10 -97 -9 -243 l2 -230 27 -9 c55 -19 58 -8 58
243 0 163 -3 230 -12 239 -16 16 -53 15 -66 0z"/>
<path d="M3343 763 c-10 -3 -13 -60 -13 -237 0 -237 3 -256 40 -256 40 1 44
13 45 167 2 160 11 197 59 228 31 21 97 25 135 9 49 -21 59 -57 61 -228 1
-151 6 -176 39 -176 42 1 46 13 47 169 1 128 4 154 21 183 32 55 107 79 170
53 54 -23 63 -55 63 -228 0 -157 5 -177 41 -177 42 0 47 21 45 192 -2 147 -4
167 -25 208 -12 25 -39 57 -58 70 -32 22 -48 25 -119 25 -76 0 -86 -2 -127
-32 l-45 -31 -42 30 c-54 40 -153 50 -215 22 -22 -10 -44 -20 -50 -22 -5 -3
-7 -1 -3 3 20 22 -33 43 -69 28z"/>
<path d="M4222 758 c-9 -9 -12 -74 -12 -233 0 -249 4 -268 57 -250 l28 10 2
230 c1 152 -1 233 -9 242 -13 16 -50 17 -66 1z"/>
<path d="M4825 758 c-120 -43 -184 -201 -134 -332 38 -101 113 -150 229 -151
65 0 82 4 123 28 54 32 77 69 60 95 -15 25 -49 26 -73 2 -79 -79 -236 -40
-262 66 -5 20 -2 20 170 20 200 -1 204 0 197 69 -9 94 -77 183 -155 205 -45
13 -116 11 -155 -2z m144 -88 c33 -13 77 -73 66 -90 -4 -6 -59 -9 -140 -8
l-134 1 19 36 c36 70 111 94 189 61z"/>
</g>
</svg>
